<svg width="393" height="167" viewBox="0 0 393 167" fill="none" xmlns="http://www.w3.org/2000/svg">
<path d="M116.127 47.3368L88.3499 19.5598C86.3973 17.6072 83.2314 17.6072 81.2788 19.5598L38.9218 61.9168C37.6619 63.1767 38.5542 65.331 40.336 65.331H41.5435C44.3049 65.331 46.5435 67.5696 46.5435 70.331V115.998C46.5435 118.759 48.7821 120.998 51.5435 120.998H67.4185H74.3769H87.8296H102.21H118.085C120.847 120.998 123.085 118.759 123.085 115.998V70.331C123.085 67.5696 125.324 65.331 128.085 65.331H129.293C131.074 65.331 131.967 63.1767 130.707 61.9168L123.085 54.2951L118.756 50.1L116.127 47.3368ZM30.7813 72.2893C26.3267 72.2893 24.0959 66.9036 27.2457 63.7538L81.2788 9.72072C83.2314 7.7681 86.3973 7.76809 88.3499 9.72071L109.169 30.5393L116.127 37.1111L122.467 43.2963L130.044 51.4143L142.383 63.7538C145.533 66.9036 143.302 72.2893 138.847 72.2893H135.044C132.282 72.2893 130.044 74.5279 130.044 77.2893V122.942C130.044 125.704 127.805 127.942 125.044 127.942H95.2519H84.8144H78.5519H74.3769H44.5852C41.8238 127.942 39.5852 125.704 39.5852 122.942V77.2893C39.5852 74.5279 37.3466 72.2893 34.5852 72.2893H30.7813Z" fill="#3D1BC5"/>
<path d="M61 69C61 67.8181 61.2457 66.6478 61.7231 65.5558C62.2006 64.4639 62.9003 63.4718 63.7825 62.636C64.6646 61.8003 65.7119 61.1374 66.8645 60.6851C68.0171 60.2328 69.2524 60 70.5 60C71.7476 60 72.9829 60.2328 74.1355 60.6851C75.2881 61.1374 76.3354 61.8003 77.2175 62.636C78.0997 63.4718 78.7994 64.4639 79.2769 65.5559C79.7543 66.6478 80 67.8181 80 69" stroke="#3D1BC5" stroke-width="5" stroke-linecap="round"/>
<path d="M89 69C89 67.8181 89.2457 66.6478 89.7231 65.5558C90.2006 64.4639 90.9003 63.4718 91.7825 62.636C92.6646 61.8003 93.7119 61.1374 94.8645 60.6851C96.0171 60.2328 97.2524 60 98.5 60C99.7476 60 100.983 60.2328 102.135 60.6851C103.288 61.1374 104.335 61.8003 105.218 62.636C106.1 63.4718 106.799 64.4639 107.277 65.5559C107.754 66.6478 108 67.8181 108 69" stroke="#3D1BC5" stroke-width="5" stroke-linecap="round"/>
<path d="M96 91C96 92.1819 95.7025 93.3522 95.1246 94.4442C94.5467 95.5361 93.6996 96.5282 92.6317 97.364C91.5639 98.1997 90.2961 98.8626 88.9009 99.3149C87.5056 99.7672 86.0102 100 84.5 100C82.9898 100 81.4944 99.7672 80.0991 99.3149C78.7039 98.8626 77.4361 98.1997 76.3683 97.364C75.3004 96.5282 74.4533 95.5361 73.8754 94.4442C73.2975 93.3522 73 92.1819 73 91" stroke="#3D1BC5" stroke-width="5" stroke-linecap="round"/>
<path d="M187.8 78.2C187.8 81.144 186.968 83.6613 185.304 85.752C183.64 87.8427 181.251 89.2933 178.136 90.104L189.272 107H179.416L170.264 90.808H164.504V107H156.952V65.464H172.312C177.219 65.464 181.037 66.6373 183.768 68.984C186.456 71.2453 187.8 74.3173 187.8 78.2ZM171.608 85.752C174.381 85.752 176.472 85.1333 177.88 83.896C179.288 82.616 179.992 80.952 179.992 78.904C179.992 76.8133 179.352 75.1493 178.072 73.912C176.792 72.632 174.872 71.992 172.312 71.992H164.504V85.752H171.608ZM214.076 64.632C216.849 64.632 219.388 65.1013 221.692 66.04C223.996 66.936 225.98 68.28 227.644 70.072C231.142 73.8267 232.892 79.2027 232.892 86.2C232.892 93.24 231.142 98.68 227.644 102.52C224.316 106.104 219.772 107.896 214.012 107.896C208.294 107.896 203.772 106.061 200.444 102.392C196.945 98.5947 195.196 93.1973 195.196 86.2C195.196 79.1173 196.945 73.6987 200.444 69.944C203.729 66.4027 208.273 64.632 214.076 64.632ZM225.083 86.328C225.083 81.5493 224.081 77.88 222.076 75.32C220.113 72.7173 217.446 71.416 214.076 71.416C210.705 71.416 208.017 72.7173 206.012 75.32C204.006 77.88 203.004 81.5493 203.004 86.328C203.004 91.064 204.006 94.712 206.012 97.272C208.017 99.7893 210.705 101.048 214.076 101.048C217.446 101.048 220.113 99.7893 222.076 97.272C224.081 94.712 225.083 91.064 225.083 86.328ZM257.763 64.632C260.536 64.632 263.075 65.1013 265.379 66.04C267.683 66.936 269.667 68.28 271.331 70.072C274.83 73.8267 276.579 79.2027 276.579 86.2C276.579 93.24 274.83 98.68 271.331 102.52C268.003 106.104 263.459 107.896 257.699 107.896C251.982 107.896 247.459 106.061 244.131 102.392C240.632 98.5947 238.883 93.1973 238.883 86.2C238.883 79.1173 240.632 73.6987 244.131 69.944C247.416 66.4027 251.96 64.632 257.763 64.632ZM268.771 86.328C268.771 81.5493 267.768 77.88 265.763 75.32C263.8 72.7173 261.134 71.416 257.763 71.416C254.392 71.416 251.704 72.7173 249.699 75.32C247.694 77.88 246.691 81.5493 246.691 86.328C246.691 91.064 247.694 94.712 249.699 97.272C251.704 99.7893 254.392 101.048 257.763 101.048C261.134 101.048 263.8 99.7893 265.763 97.272C267.768 94.712 268.771 91.064 268.771 86.328ZM296.331 65.464L307.723 90.168L319.115 65.464H329.547V107H321.931V75.448L310.155 102.456H305.227L293.067 74.552V107H285.515V65.464H296.331ZM341.452 65.464H349.004V107H341.452V65.464ZM360.826 65.464H387.578V71.992H368.378V82.936H386.362V89.464H368.378V100.408H387.578V107H360.826V65.464Z" fill="#3D1BC5"/>
<path d="M177.124 53.202C177.349 53.202 177.523 53.306 177.644 53.514C177.783 53.722 177.852 54.008 177.852 54.372C177.852 55.048 177.687 55.5853 177.358 55.984C176.387 57.1453 175.443 57.96 174.524 58.428C173.623 58.896 172.531 59.13 171.248 59.13C170.347 59.13 169.515 59.0173 168.752 58.792C167.989 58.5667 167.062 58.2287 165.97 57.778C164.982 57.3447 164.029 56.9893 163.11 56.712C162.226 58.324 160.9 59.13 159.132 59.13C158.161 59.13 157.39 58.9133 156.818 58.48C156.229 58.0293 155.934 57.4573 155.934 56.764C155.934 55.9147 156.341 55.2127 157.156 54.658C157.971 54.086 159.054 53.8 160.406 53.8H160.744L161.212 46.234C161.316 44.5007 161.628 43.0707 162.148 41.944C162.668 40.8173 163.387 39.8553 164.306 39.058C165.103 38.3647 166.013 37.8447 167.036 37.498C168.059 37.134 169.142 36.952 170.286 36.952C172.158 36.952 173.597 37.4373 174.602 38.408C175.607 39.3787 176.11 40.644 176.11 42.204C176.11 43.2613 175.919 44.1193 175.538 44.778C175.157 45.4193 174.628 45.74 173.952 45.74C173.467 45.74 173.085 45.6273 172.808 45.402C172.531 45.1593 172.392 44.8213 172.392 44.388C172.392 44.232 172.427 43.946 172.496 43.53C172.6 43.0447 172.652 42.6113 172.652 42.23C172.652 41.502 172.435 40.93 172.002 40.514C171.586 40.0807 170.945 39.864 170.078 39.864C168.553 39.864 167.374 40.3667 166.542 41.372C165.71 42.36 165.181 43.92 164.956 46.052L164.358 51.954C164.271 52.786 164.159 53.5053 164.02 54.112C165.129 54.3027 166.516 54.606 168.18 55.022C169.151 55.2647 169.896 55.438 170.416 55.542C170.936 55.646 171.395 55.698 171.794 55.698C172.799 55.698 173.657 55.5333 174.368 55.204C175.096 54.8573 175.781 54.3113 176.422 53.566C176.63 53.3233 176.864 53.202 177.124 53.202ZM189.42 53.202C189.646 53.202 189.819 53.306 189.94 53.514C190.079 53.722 190.148 54.008 190.148 54.372C190.148 55.0653 189.984 55.6027 189.654 55.984C189.013 56.764 188.103 57.4833 186.924 58.142C185.763 58.8007 184.515 59.13 183.18 59.13C181.36 59.13 179.948 58.636 178.942 57.648C177.937 56.66 177.434 55.308 177.434 53.592C177.434 52.396 177.686 51.2867 178.188 50.264C178.691 49.224 179.384 48.4007 180.268 47.794C181.17 47.1873 182.184 46.884 183.31 46.884C184.316 46.884 185.122 47.1873 185.728 47.794C186.335 48.3833 186.638 49.1893 186.638 50.212C186.638 51.408 186.205 52.4393 185.338 53.306C184.489 54.1553 183.042 54.8313 180.996 55.334C181.43 56.1313 182.253 56.53 183.466 56.53C184.246 56.53 185.13 56.2613 186.118 55.724C187.124 55.1693 187.99 54.45 188.718 53.566C188.926 53.3233 189.16 53.202 189.42 53.202ZM182.868 49.432C182.227 49.432 181.681 49.8047 181.23 50.55C180.797 51.2953 180.58 52.1967 180.58 53.254V53.306C181.603 53.0633 182.409 52.6993 182.998 52.214C183.588 51.7287 183.882 51.1653 183.882 50.524C183.882 50.1947 183.787 49.9347 183.596 49.744C183.423 49.536 183.18 49.432 182.868 49.432ZM192.321 49.354C192.287 50.2207 192.269 50.8967 192.269 51.382C192.269 52.63 192.33 53.6093 192.451 54.32C192.59 55.0133 192.807 55.516 193.101 55.828C193.413 56.1227 193.838 56.27 194.375 56.27C194.653 56.27 194.982 56.1833 195.363 56.01C195.745 55.8367 196.091 55.6113 196.403 55.334C196.594 55.1607 196.785 55.074 196.975 55.074C197.183 55.074 197.348 55.1953 197.469 55.438C197.608 55.6633 197.677 55.9407 197.677 56.27C197.677 56.5993 197.608 56.92 197.469 57.232C197.348 57.544 197.157 57.804 196.897 58.012C195.996 58.7573 194.973 59.13 193.829 59.13C192.183 59.13 190.978 58.4453 190.215 57.076C189.453 55.6893 189.071 53.8867 189.071 51.668C189.071 50.9053 189.097 50.134 189.149 49.354H188.135C187.615 49.354 187.26 49.2587 187.069 49.068C186.896 48.8773 186.809 48.574 186.809 48.158C186.809 47.1873 187.199 46.702 187.979 46.702H189.461C189.756 44.7953 190.207 43.0533 190.813 41.476C191.42 39.8987 192.148 38.642 192.997 37.706C193.864 36.77 194.791 36.302 195.779 36.302C196.507 36.302 197.079 36.6227 197.495 37.264C197.911 37.9053 198.119 38.7113 198.119 39.682C198.119 42.3687 196.993 44.7087 194.739 46.702H197.651C197.929 46.702 198.128 46.7627 198.249 46.884C198.371 47.0053 198.431 47.2307 198.431 47.56C198.431 48.756 197.452 49.354 195.493 49.354H192.321ZM195.077 38.798C194.817 38.798 194.523 39.1273 194.193 39.786C193.881 40.4273 193.578 41.3287 193.283 42.49C193.006 43.634 192.772 44.908 192.581 46.312C193.604 45.428 194.367 44.44 194.869 43.348C195.389 42.2387 195.649 41.2333 195.649 40.332C195.649 39.3093 195.459 38.798 195.077 38.798ZM202.217 43.53C201.836 43.53 201.533 43.4433 201.307 43.27C201.082 43.0967 200.969 42.8193 200.969 42.438C200.969 42.282 200.995 42.1 201.047 41.892C201.238 41.0947 201.377 40.358 201.463 39.682C201.567 39.006 201.619 38.252 201.619 37.42C201.619 36.5533 201.819 35.886 202.217 35.418C202.633 34.95 203.162 34.716 203.803 34.716C204.427 34.716 204.895 34.8893 205.207 35.236C205.537 35.5653 205.701 36.016 205.701 36.588C205.701 37.1947 205.519 38.0007 205.155 39.006C204.791 40.0113 204.349 40.9907 203.829 41.944C203.483 42.5853 203.205 43.01 202.997 43.218C202.807 43.426 202.547 43.53 202.217 43.53ZM210.26 59.702C209.358 59.702 208.665 59.494 208.18 59.078C207.712 58.662 207.478 58.194 207.478 57.674C207.478 57.2233 207.642 56.8333 207.972 56.504C208.301 56.1747 208.786 56.01 209.428 56.01C209.653 56.01 209.913 56.036 210.208 56.088C210.52 56.1227 210.754 56.1487 210.91 56.166C210.892 55.7153 210.788 55.2907 210.598 54.892C210.424 54.4933 210.199 54.112 209.922 53.748C209.644 53.3667 209.384 53.0373 209.142 52.76C208.604 53.7827 208.067 54.632 207.53 55.308C207.01 55.984 206.438 56.6253 205.814 57.232C205.502 57.544 205.172 57.7 204.826 57.7C204.548 57.7 204.323 57.6047 204.15 57.414C203.976 57.206 203.89 56.9547 203.89 56.66C203.89 56.3133 204.011 55.9927 204.254 55.698L204.592 55.282C205.545 54.1033 206.264 53.1327 206.75 52.37C207.062 51.8673 207.374 51.2693 207.686 50.576C208.015 49.8827 208.44 48.938 208.96 47.742C209.289 46.9793 209.974 46.598 211.014 46.598C211.499 46.598 211.837 46.6413 212.028 46.728C212.218 46.8147 212.314 46.9533 212.314 47.144C212.314 47.248 212.279 47.4127 212.21 47.638C212.14 47.8633 212.045 48.0887 211.924 48.314C211.612 48.938 211.456 49.4667 211.456 49.9C211.456 50.16 211.542 50.446 211.716 50.758C211.906 51.07 212.192 51.46 212.574 51.928C213.128 52.656 213.544 53.28 213.822 53.8C214.116 54.3027 214.264 54.8573 214.264 55.464C214.264 56.192 214.09 56.8853 213.744 57.544C213.414 58.1853 212.946 58.7053 212.34 59.104C211.733 59.5027 211.04 59.702 210.26 59.702Z" fill="#3D1BC5"/>
</svg>
